<?xml version="1.0" encoding="UTF-8"?>
<svg id="Layer_1" data-name="Layer 1" xmlns="http://www.w3.org/2000/svg" viewBox="0 0 485.5 485.02">
  <defs>
    <style>
      .cls-1 {
        fill: #fff;
      }

      .cls-2 {
        fill: #73c4fc;
      }

      .cls-3 {
        stroke: #000;
        stroke-miterlimit: 10;
      }

      .cls-3, .cls-4 {
        fill: none;
      }
    </style>
  </defs>
  <g>
    <path class="cls-4" d="m406.5.52c43.08,0,78,34.92,78,78V.52h-78Z"/>
    <g>
      <path d="m485,79.02v164h-242V1.02h164c43.08,0,78,34.92,78,78Z"/>
      <path class="cls-3" d="m407,1.02h-164v242h242V79.02c0-43.08-34.92-78-78-78Z"/>
    </g>
  </g>
  <g>
    <path class="cls-2" d="m255.64,253.43h228.86c-5.84,127.79-112.73,231.09-241.87,231.09S.5,375.23.5,242.43,104.9,5.33,233.63.52v241.91h22.01v11Z"/>
    <path class="cls-3" d="m255.64,253.43v-11h-22.01V.52C104.9,5.33.5,112.63.5,242.43s109.3,242.09,242.13,242.09,236.03-103.3,241.87-231.09h-228.86Z"/>
  </g>
  <g>
    <circle class="cls-1" cx="243" cy="242.02" r="150"/>
    <path d="m243,92.52c39.93,0,77.48,15.55,105.71,43.79,28.24,28.24,43.79,65.78,43.79,105.71s-15.55,77.48-43.79,105.71-65.78,43.79-105.71,43.79-77.48-15.55-105.71-43.79-43.79-65.78-43.79-105.71,15.55-77.48,43.79-105.71c28.24-28.24,65.78-43.79,105.71-43.79m0-1c-83.12,0-150.5,67.38-150.5,150.5s67.38,150.5,150.5,150.5,150.5-67.38,150.5-150.5-67.38-150.5-150.5-150.5h0Z"/>
  </g>
</svg>