<?xml version="1.0" encoding="UTF-8"?>
<svg id="Layer_2" data-name="Layer 2" xmlns="http://www.w3.org/2000/svg" viewBox="0 0 1720.5 393.87">
  <defs>
    <style>
      .cls-1 {
        fill: #fff;
      }

      .cls-2 {
        fill: #73c4fc;
      }

      .cls-3 {
        stroke: #000;
        stroke-miterlimit: 10;
      }

      .cls-3, .cls-4 {
        fill: none;
      }

      .cls-5 {
        font-family: SitkaText, Sitka;
        font-size: 300px;
        font-variation-settings: 'opsz' 11, 'wght' 400;
      }
    </style>
  </defs>
  <g id="Layer_1-2" data-name="Layer 1">
    <g>
      <g>
        <g>
          <path class="cls-4" d="m184.31,39.87c19.5,0,35.31,16.52,35.31,36.9v-36.9h-35.31Z"/>
          <g>
            <path d="m219.85,77.01v77.6h-109.56V40.11h74.25c19.5,0,35.31,16.52,35.31,36.9Z"/>
            <path class="cls-3" d="m184.54,40.11h-74.25v114.5h109.56v-77.6c0-20.38-15.81-36.9-35.31-36.9Z"/>
          </g>
        </g>
        <g>
          <path class="cls-2" d="m116.01,159.53h103.61c-2.64,60.46-51.04,109.34-109.5,109.34S.5,217.16.5,154.33,47.77,42.14,106.05,39.87v114.46h9.96v5.2Z"/>
          <path class="cls-3" d="m116.01,159.53v-5.2h-9.96V39.87C47.77,42.14.5,92.91.5,154.33s49.48,114.54,109.62,114.54,106.86-48.88,109.5-109.34h-103.61Z"/>
        </g>
        <g>
          <ellipse class="cls-1" cx="110.29" cy="154.13" rx="67.64" ry="70.71"/>
          <path d="m110.29,83.92c37.02,0,67.14,31.49,67.14,70.21s-30.12,70.21-67.14,70.21-67.14-31.49-67.14-70.21,30.12-70.21,67.14-70.21m0-1c-37.63,0-68.14,31.88-68.14,71.21s30.51,71.21,68.14,71.21,68.14-31.88,68.14-71.21-30.51-71.21-68.14-71.21h0Z"/>
        </g>
      </g>
      <text class="cls-5" transform="translate(245.83 245.6)"><tspan x="0" y="0">WENISAS</tspan></text>
    </g>
  </g>
</svg>